G04 #@! TF.GenerationSoftware,KiCad,Pcbnew,(5.1.9)-1*
G04 #@! TF.CreationDate,2021-04-13T11:57:25+01:00*
G04 #@! TF.ProjectId,Env-KB60,456e762d-4b42-4363-902e-6b696361645f,rev?*
G04 #@! TF.SameCoordinates,Original*
G04 #@! TF.FileFunction,Legend,Bot*
G04 #@! TF.FilePolarity,Positive*
%FSLAX46Y46*%
G04 Gerber Fmt 4.6, Leading zero omitted, Abs format (unit mm)*
G04 Created by KiCad (PCBNEW (5.1.9)-1) date 2021-04-13 11:57:25*
%MOMM*%
%LPD*%
G01*
G04 APERTURE LIST*
%ADD10C,0.120000*%
G04 APERTURE END LIST*
D10*
X309000000Y-97500000D02*
X309000000Y-76500000D01*
X258000000Y-90700000D02*
X258000000Y-97500000D01*
X306333000Y-97500000D02*
X306333000Y-94493000D01*
X306333000Y-94493000D02*
X309000000Y-94493000D01*
X309000000Y-97500000D02*
X308700000Y-97500000D01*
X306600000Y-97500000D02*
X306200000Y-97500000D01*
X304000000Y-97500000D02*
X303600000Y-97500000D01*
X301500000Y-97500000D02*
X301100000Y-97500000D01*
X298900000Y-97500000D02*
X298500000Y-97500000D01*
X296400000Y-97500000D02*
X296000000Y-97500000D01*
X293900000Y-97500000D02*
X293500000Y-97500000D01*
X291300000Y-97500000D02*
X290900000Y-97500000D01*
X288800000Y-97500000D02*
X288400000Y-97500000D01*
X286200000Y-97500000D02*
X285800000Y-97500000D01*
X283700000Y-97500000D02*
X283300000Y-97500000D01*
X281200000Y-97500000D02*
X280800000Y-97500000D01*
X278600000Y-97500000D02*
X278200000Y-97500000D01*
X276100000Y-97500000D02*
X275700000Y-97500000D01*
X273500000Y-97500000D02*
X273100000Y-97500000D01*
X271000000Y-97500000D02*
X270600000Y-97500000D01*
X268400000Y-97500000D02*
X268000000Y-97500000D01*
X265900000Y-97500000D02*
X265500000Y-97500000D01*
X263400000Y-97500000D02*
X263000000Y-97500000D01*
X260800000Y-97500000D02*
X260400000Y-97500000D01*
X293900000Y-76500000D02*
X293500000Y-76500000D01*
X288800000Y-76500000D02*
X288400000Y-76500000D01*
X281200000Y-76500000D02*
X280800000Y-76500000D01*
X273500000Y-76500000D02*
X273100000Y-76500000D01*
X304000000Y-76500000D02*
X303600000Y-76500000D01*
X306600000Y-76500000D02*
X306200000Y-76500000D01*
X298900000Y-76500000D02*
X298500000Y-76500000D01*
X265900000Y-76500000D02*
X265500000Y-76500000D01*
X260800000Y-76500000D02*
X260400000Y-76500000D01*
X263400000Y-76500000D02*
X263000000Y-76500000D01*
X278600000Y-76500000D02*
X278200000Y-76500000D01*
X283700000Y-76500000D02*
X283300000Y-76500000D01*
X296400000Y-76500000D02*
X296000000Y-76500000D01*
X291300000Y-76500000D02*
X290900000Y-76500000D01*
X271000000Y-76500000D02*
X270600000Y-76500000D01*
X286200000Y-76500000D02*
X285800000Y-76500000D01*
X309000000Y-76500000D02*
X308700000Y-76500000D01*
X301500000Y-76500000D02*
X301100000Y-76500000D01*
X276100000Y-76500000D02*
X275700000Y-76500000D01*
X268400000Y-76500000D02*
X268000000Y-76500000D01*
X258000000Y-76500000D02*
X258000000Y-83300000D01*
X258000000Y-88500000D02*
X258000000Y-88100000D01*
X258000000Y-85900000D02*
X258000000Y-85500000D01*
M02*
