G04 #@! TF.GenerationSoftware,KiCad,Pcbnew,(5.1.9)-1*
G04 #@! TF.CreationDate,2021-04-13T11:57:25+01:00*
G04 #@! TF.ProjectId,Env-KB60,456e762d-4b42-4363-902e-6b696361645f,rev?*
G04 #@! TF.SameCoordinates,Original*
G04 #@! TF.FileFunction,Soldermask,Bot*
G04 #@! TF.FilePolarity,Negative*
%FSLAX46Y46*%
G04 Gerber Fmt 4.6, Leading zero omitted, Abs format (unit mm)*
G04 Created by KiCad (PCBNEW (5.1.9)-1) date 2021-04-13 11:57:25*
%MOMM*%
%LPD*%
G01*
G04 APERTURE LIST*
%ADD10C,2.200000*%
%ADD11C,2.250000*%
%ADD12C,3.987800*%
%ADD13C,1.750000*%
%ADD14C,3.048000*%
%ADD15O,1.600000X1.600000*%
%ADD16R,1.600000X1.600000*%
%ADD17O,1.700000X1.700000*%
%ADD18R,3.500000X1.700000*%
%ADD19R,1.700000X1.700000*%
%ADD20R,1.700000X3.500000*%
G04 APERTURE END LIST*
D10*
X211000000Y-171000000D03*
X211000000Y-99500000D03*
X351000000Y-77000000D03*
X351000000Y-171000000D03*
X71000000Y-171000000D03*
X71000000Y-77000000D03*
D11*
X92040000Y-139020000D03*
D12*
X89500000Y-144100000D03*
D11*
X85690000Y-141560000D03*
D13*
X84420000Y-144100000D03*
X94580000Y-144100000D03*
D14*
X77593750Y-151085000D03*
X101406250Y-151085000D03*
D12*
X77593750Y-135845000D03*
X101406250Y-135845000D03*
D11*
X330196250Y-138970000D03*
D12*
X327656250Y-144050000D03*
D11*
X323846250Y-141510000D03*
D13*
X322576250Y-144050000D03*
X332736250Y-144050000D03*
D14*
X315750000Y-137065000D03*
X339562500Y-137065000D03*
D12*
X315750000Y-152305000D03*
X339562500Y-152305000D03*
D11*
X251615000Y-81820000D03*
D12*
X249075000Y-86900000D03*
D11*
X245265000Y-84360000D03*
D13*
X243995000Y-86900000D03*
X254155000Y-86900000D03*
D15*
X93175000Y-114075000D03*
D16*
X93175000Y-106455000D03*
D11*
X201608750Y-158020000D03*
D12*
X199068750Y-163100000D03*
D11*
X195258750Y-160560000D03*
D13*
X193988750Y-163100000D03*
X204148750Y-163100000D03*
D14*
X149068850Y-156115000D03*
X249068650Y-156115000D03*
D12*
X149068850Y-171355000D03*
X249068650Y-171355000D03*
D17*
X259600000Y-84460000D03*
D18*
X258700000Y-84460000D03*
D19*
X259600000Y-87000000D03*
D18*
X258700000Y-87000000D03*
D17*
X259600000Y-89540000D03*
D18*
X258700000Y-89540000D03*
D20*
X259370000Y-77210000D03*
X261910000Y-77210000D03*
X264450000Y-77210000D03*
X266990000Y-77210000D03*
X269530000Y-77210000D03*
X272070000Y-77210000D03*
X274610000Y-77210000D03*
X277150000Y-77210000D03*
X279690000Y-77210000D03*
X282230000Y-77210000D03*
X284770000Y-77210000D03*
X287310000Y-77210000D03*
X289850000Y-77210000D03*
X292390000Y-77210000D03*
X294930000Y-77210000D03*
X297470000Y-77210000D03*
X300010000Y-77210000D03*
X302550000Y-77210000D03*
X305090000Y-77210000D03*
X307630000Y-77210000D03*
X259370000Y-96790000D03*
X261910000Y-96790000D03*
X264450000Y-96790000D03*
X266990000Y-96790000D03*
X269530000Y-96790000D03*
X272070000Y-96790000D03*
X274610000Y-96790000D03*
X277150000Y-96790000D03*
X279690000Y-96790000D03*
X282230000Y-96790000D03*
X284770000Y-96790000D03*
X287310000Y-96790000D03*
X289850000Y-96790000D03*
X292390000Y-96790000D03*
X294930000Y-96790000D03*
X297470000Y-96790000D03*
X300010000Y-96790000D03*
X302550000Y-96790000D03*
X305090000Y-96790000D03*
X307630000Y-96790000D03*
D17*
X307630000Y-78110000D03*
X305090000Y-78110000D03*
D19*
X302550000Y-78110000D03*
D17*
X300010000Y-78110000D03*
X297470000Y-78110000D03*
X294930000Y-78110000D03*
X292390000Y-78110000D03*
D19*
X289850000Y-78110000D03*
D17*
X287310000Y-78110000D03*
X284770000Y-78110000D03*
X282230000Y-78110000D03*
X279690000Y-78110000D03*
D19*
X277150000Y-78110000D03*
D17*
X274610000Y-78110000D03*
X272070000Y-78110000D03*
X269530000Y-78110000D03*
X266990000Y-78110000D03*
D19*
X264450000Y-78110000D03*
D17*
X261910000Y-78110000D03*
X259370000Y-78110000D03*
X259370000Y-95890000D03*
X261910000Y-95890000D03*
D19*
X264450000Y-95890000D03*
D17*
X266990000Y-95890000D03*
X269530000Y-95890000D03*
X272070000Y-95890000D03*
X274610000Y-95890000D03*
D19*
X277150000Y-95890000D03*
D17*
X279690000Y-95890000D03*
X282230000Y-95890000D03*
X284770000Y-95890000D03*
X287310000Y-95890000D03*
D19*
X289850000Y-95890000D03*
D17*
X292390000Y-95890000D03*
X294930000Y-95890000D03*
X297470000Y-95890000D03*
X300010000Y-95890000D03*
D19*
X302550000Y-95890000D03*
D17*
X305090000Y-95890000D03*
X307630000Y-95890000D03*
D15*
X326000000Y-114120000D03*
D16*
X326000000Y-106500000D03*
D15*
X100437500Y-129800000D03*
D16*
X100437500Y-122180000D03*
D15*
X148062500Y-152170000D03*
D16*
X148062500Y-144550000D03*
D15*
X312490000Y-133120000D03*
D16*
X312490000Y-125500000D03*
D15*
X81900000Y-152600000D03*
D16*
X89520000Y-152600000D03*
D15*
X224262500Y-152170000D03*
D16*
X224262500Y-144550000D03*
D15*
X262362500Y-152170000D03*
D16*
X262362500Y-144550000D03*
D15*
X119487500Y-133120000D03*
D16*
X119487500Y-125500000D03*
D15*
X286175000Y-114070000D03*
D16*
X286175000Y-106450000D03*
D15*
X276000000Y-90620000D03*
D16*
X276000000Y-83000000D03*
D15*
X295700000Y-90620000D03*
D16*
X295700000Y-83000000D03*
D15*
X343000000Y-90620000D03*
D16*
X343000000Y-83000000D03*
D15*
X152825000Y-114070000D03*
D16*
X152825000Y-106450000D03*
D15*
X328500000Y-114120000D03*
D16*
X328500000Y-106500000D03*
D15*
X157587500Y-133120000D03*
D16*
X157587500Y-125500000D03*
D15*
X233787500Y-133120000D03*
D16*
X233787500Y-125500000D03*
D15*
X305225000Y-114070000D03*
D16*
X305225000Y-106450000D03*
D15*
X133775000Y-114070000D03*
D16*
X133775000Y-106450000D03*
D15*
X314750000Y-90620000D03*
D16*
X314750000Y-83000000D03*
D15*
X114725000Y-114070000D03*
D16*
X114725000Y-106450000D03*
D15*
X209975000Y-114070000D03*
D16*
X209975000Y-106450000D03*
D15*
X171875000Y-114070000D03*
D16*
X171875000Y-106450000D03*
D15*
X267125000Y-114070000D03*
D16*
X267125000Y-106450000D03*
D15*
X176637500Y-133120000D03*
D16*
X176637500Y-125500000D03*
D15*
X214737500Y-133120000D03*
D16*
X214737500Y-125500000D03*
D15*
X248075000Y-114070000D03*
D16*
X248075000Y-106450000D03*
D15*
X252837500Y-133120000D03*
D16*
X252837500Y-125500000D03*
D15*
X195687500Y-133120000D03*
D16*
X195687500Y-125500000D03*
D15*
X271887500Y-133120000D03*
D16*
X271887500Y-125500000D03*
D15*
X290937500Y-133120000D03*
D16*
X290937500Y-125500000D03*
D15*
X309987500Y-133120000D03*
D16*
X309987500Y-125500000D03*
D15*
X109962500Y-152170000D03*
D16*
X109962500Y-144550000D03*
D15*
X129012500Y-152170000D03*
D16*
X129012500Y-144550000D03*
D15*
X95675000Y-114070000D03*
D16*
X95675000Y-106450000D03*
D15*
X190925000Y-114070000D03*
D16*
X190925000Y-106450000D03*
D15*
X229025000Y-114070000D03*
D16*
X229025000Y-106450000D03*
D15*
X138537500Y-133120000D03*
D16*
X138537500Y-125500000D03*
D15*
X167112500Y-152170000D03*
D16*
X167112500Y-144550000D03*
D15*
X186162500Y-152170000D03*
D16*
X186162500Y-144550000D03*
D15*
X205212500Y-152170000D03*
D16*
X205212500Y-144550000D03*
D15*
X243312500Y-152170000D03*
D16*
X243312500Y-144550000D03*
D15*
X114000000Y-166120000D03*
D16*
X114000000Y-158500000D03*
D15*
X90912500Y-166120000D03*
D16*
X90912500Y-158500000D03*
D15*
X281000000Y-166120000D03*
D16*
X281000000Y-158500000D03*
D15*
X300462500Y-152170000D03*
D16*
X300462500Y-144550000D03*
D15*
X281412500Y-152170000D03*
D16*
X281412500Y-144550000D03*
D15*
X138500000Y-166120000D03*
D16*
X138500000Y-158500000D03*
D15*
X305225000Y-166120000D03*
D16*
X305225000Y-158500000D03*
D15*
X328500000Y-166120000D03*
D16*
X328500000Y-158500000D03*
D15*
X207500000Y-167000000D03*
D16*
X207500000Y-159380000D03*
D15*
X336000000Y-147620000D03*
D16*
X336000000Y-140000000D03*
D15*
X200450000Y-95020000D03*
D16*
X200450000Y-87400000D03*
D15*
X181400000Y-95020000D03*
D16*
X181400000Y-87400000D03*
D15*
X238550000Y-95020000D03*
D16*
X238550000Y-87400000D03*
D15*
X219500000Y-95020000D03*
D16*
X219500000Y-87400000D03*
D15*
X124250000Y-95020000D03*
D16*
X124250000Y-87400000D03*
D15*
X241000000Y-95020000D03*
D16*
X241000000Y-87400000D03*
D15*
X86150000Y-95020000D03*
D16*
X86150000Y-87400000D03*
D15*
X143300000Y-95020000D03*
D16*
X143300000Y-87400000D03*
D15*
X105200000Y-95020000D03*
D16*
X105200000Y-87400000D03*
D15*
X162350000Y-95020000D03*
D16*
X162350000Y-87400000D03*
D15*
X331500000Y-166120000D03*
D16*
X331500000Y-158500000D03*
D12*
X333688750Y-103562000D03*
X333688750Y-127438000D03*
D14*
X348928750Y-103562000D03*
X348928750Y-127438000D03*
D13*
X341943750Y-120580000D03*
X341943750Y-110420000D03*
D11*
X344483750Y-111690000D03*
D12*
X341943750Y-115500000D03*
D11*
X347023750Y-118040000D03*
X334940000Y-119920000D03*
D12*
X332400000Y-125000000D03*
D11*
X328590000Y-122460000D03*
D13*
X327320000Y-125000000D03*
X337480000Y-125000000D03*
D14*
X320493750Y-118015000D03*
X344306250Y-118015000D03*
D12*
X320493750Y-133255000D03*
X344306250Y-133255000D03*
D11*
X342090000Y-100870000D03*
D12*
X339550000Y-105950000D03*
D11*
X335740000Y-103410000D03*
D13*
X334470000Y-105950000D03*
X344630000Y-105950000D03*
D11*
X87308750Y-119920000D03*
D12*
X84768750Y-125000000D03*
D11*
X80958750Y-122460000D03*
D13*
X79688750Y-125000000D03*
X89848750Y-125000000D03*
D11*
X344483750Y-158020000D03*
D12*
X341943750Y-163100000D03*
D11*
X338133750Y-160560000D03*
D13*
X336863750Y-163100000D03*
X347023750Y-163100000D03*
D11*
X320671250Y-158020000D03*
D12*
X318131250Y-163100000D03*
D11*
X314321250Y-160560000D03*
D13*
X313051250Y-163100000D03*
X323211250Y-163100000D03*
D11*
X296858750Y-158020000D03*
D12*
X294318750Y-163100000D03*
D11*
X290508750Y-160560000D03*
D13*
X289238750Y-163100000D03*
X299398750Y-163100000D03*
D11*
X273046250Y-158020000D03*
D12*
X270506250Y-163100000D03*
D11*
X266696250Y-160560000D03*
D13*
X265426250Y-163100000D03*
X275586250Y-163100000D03*
D11*
X130171250Y-158020000D03*
D12*
X127631250Y-163100000D03*
D11*
X123821250Y-160560000D03*
D13*
X122551250Y-163100000D03*
X132711250Y-163100000D03*
D11*
X106358750Y-158020000D03*
D12*
X103818750Y-163100000D03*
D11*
X100008750Y-160560000D03*
D13*
X98738750Y-163100000D03*
X108898750Y-163100000D03*
D11*
X82546250Y-158020000D03*
D12*
X80006250Y-163100000D03*
D11*
X76196250Y-160560000D03*
D13*
X74926250Y-163100000D03*
X85086250Y-163100000D03*
D11*
X294477500Y-138970000D03*
D12*
X291937500Y-144050000D03*
D11*
X288127500Y-141510000D03*
D13*
X286857500Y-144050000D03*
X297017500Y-144050000D03*
D11*
X275427500Y-138970000D03*
D12*
X272887500Y-144050000D03*
D11*
X269077500Y-141510000D03*
D13*
X267807500Y-144050000D03*
X277967500Y-144050000D03*
D11*
X256377500Y-138970000D03*
D12*
X253837500Y-144050000D03*
D11*
X250027500Y-141510000D03*
D13*
X248757500Y-144050000D03*
X258917500Y-144050000D03*
D11*
X237327500Y-138970000D03*
D12*
X234787500Y-144050000D03*
D11*
X230977500Y-141510000D03*
D13*
X229707500Y-144050000D03*
X239867500Y-144050000D03*
D11*
X218277500Y-138970000D03*
D12*
X215737500Y-144050000D03*
D11*
X211927500Y-141510000D03*
D13*
X210657500Y-144050000D03*
X220817500Y-144050000D03*
D11*
X199227500Y-138970000D03*
D12*
X196687500Y-144050000D03*
D11*
X192877500Y-141510000D03*
D13*
X191607500Y-144050000D03*
X201767500Y-144050000D03*
D11*
X180177500Y-138970000D03*
D12*
X177637500Y-144050000D03*
D11*
X173827500Y-141510000D03*
D13*
X172557500Y-144050000D03*
X182717500Y-144050000D03*
D11*
X161127500Y-138970000D03*
D12*
X158587500Y-144050000D03*
D11*
X154777500Y-141510000D03*
D13*
X153507500Y-144050000D03*
X163667500Y-144050000D03*
D11*
X142077500Y-138970000D03*
D12*
X139537500Y-144050000D03*
D11*
X135727500Y-141510000D03*
D13*
X134457500Y-144050000D03*
X144617500Y-144050000D03*
D11*
X123027500Y-138970000D03*
D12*
X120487500Y-144050000D03*
D11*
X116677500Y-141510000D03*
D13*
X115407500Y-144050000D03*
X125567500Y-144050000D03*
D11*
X103977500Y-138970000D03*
D12*
X101437500Y-144050000D03*
D11*
X97627500Y-141510000D03*
D13*
X96357500Y-144050000D03*
X106517500Y-144050000D03*
D11*
X82546250Y-138970000D03*
D12*
X80006250Y-144050000D03*
D11*
X76196250Y-141510000D03*
D13*
X74926250Y-144050000D03*
X85086250Y-144050000D03*
D11*
X323052500Y-119920000D03*
D12*
X320512500Y-125000000D03*
D11*
X316702500Y-122460000D03*
D13*
X315432500Y-125000000D03*
X325592500Y-125000000D03*
D11*
X304002500Y-119920000D03*
D12*
X301462500Y-125000000D03*
D11*
X297652500Y-122460000D03*
D13*
X296382500Y-125000000D03*
X306542500Y-125000000D03*
D11*
X284952500Y-119920000D03*
D12*
X282412500Y-125000000D03*
D11*
X278602500Y-122460000D03*
D13*
X277332500Y-125000000D03*
X287492500Y-125000000D03*
D11*
X265902500Y-119920000D03*
D12*
X263362500Y-125000000D03*
D11*
X259552500Y-122460000D03*
D13*
X258282500Y-125000000D03*
X268442500Y-125000000D03*
D11*
X246852500Y-119920000D03*
D12*
X244312500Y-125000000D03*
D11*
X240502500Y-122460000D03*
D13*
X239232500Y-125000000D03*
X249392500Y-125000000D03*
D11*
X227802500Y-119920000D03*
D12*
X225262500Y-125000000D03*
D11*
X221452500Y-122460000D03*
D13*
X220182500Y-125000000D03*
X230342500Y-125000000D03*
D11*
X208752500Y-119920000D03*
D12*
X206212500Y-125000000D03*
D11*
X202402500Y-122460000D03*
D13*
X201132500Y-125000000D03*
X211292500Y-125000000D03*
D11*
X189702500Y-119920000D03*
D12*
X187162500Y-125000000D03*
D11*
X183352500Y-122460000D03*
D13*
X182082500Y-125000000D03*
X192242500Y-125000000D03*
D11*
X170652500Y-119920000D03*
D12*
X168112500Y-125000000D03*
D11*
X164302500Y-122460000D03*
D13*
X163032500Y-125000000D03*
X173192500Y-125000000D03*
D11*
X151602500Y-119920000D03*
D12*
X149062500Y-125000000D03*
D11*
X145252500Y-122460000D03*
D13*
X143982500Y-125000000D03*
X154142500Y-125000000D03*
D11*
X132552500Y-119920000D03*
D12*
X130012500Y-125000000D03*
D11*
X126202500Y-122460000D03*
D13*
X124932500Y-125000000D03*
X135092500Y-125000000D03*
D11*
X113502500Y-119920000D03*
D12*
X110962500Y-125000000D03*
D11*
X107152500Y-122460000D03*
D13*
X105882500Y-125000000D03*
X116042500Y-125000000D03*
D11*
X318290000Y-100870000D03*
D12*
X315750000Y-105950000D03*
D11*
X311940000Y-103410000D03*
D13*
X310670000Y-105950000D03*
X320830000Y-105950000D03*
D11*
X299240000Y-100870000D03*
D12*
X296700000Y-105950000D03*
D11*
X292890000Y-103410000D03*
D13*
X291620000Y-105950000D03*
X301780000Y-105950000D03*
D11*
X280190000Y-100870000D03*
D12*
X277650000Y-105950000D03*
D11*
X273840000Y-103410000D03*
D13*
X272570000Y-105950000D03*
X282730000Y-105950000D03*
D11*
X261140000Y-100870000D03*
D12*
X258600000Y-105950000D03*
D11*
X254790000Y-103410000D03*
D13*
X253520000Y-105950000D03*
X263680000Y-105950000D03*
D11*
X242090000Y-100870000D03*
D12*
X239550000Y-105950000D03*
D11*
X235740000Y-103410000D03*
D13*
X234470000Y-105950000D03*
X244630000Y-105950000D03*
D11*
X223040000Y-100870000D03*
D12*
X220500000Y-105950000D03*
D11*
X216690000Y-103410000D03*
D13*
X215420000Y-105950000D03*
X225580000Y-105950000D03*
D11*
X203990000Y-100870000D03*
D12*
X201450000Y-105950000D03*
D11*
X197640000Y-103410000D03*
D13*
X196370000Y-105950000D03*
X206530000Y-105950000D03*
D11*
X184940000Y-100870000D03*
D12*
X182400000Y-105950000D03*
D11*
X178590000Y-103410000D03*
D13*
X177320000Y-105950000D03*
X187480000Y-105950000D03*
D11*
X165890000Y-100870000D03*
D12*
X163350000Y-105950000D03*
D11*
X159540000Y-103410000D03*
D13*
X158270000Y-105950000D03*
X168430000Y-105950000D03*
D11*
X146840000Y-100870000D03*
D12*
X144300000Y-105950000D03*
D11*
X140490000Y-103410000D03*
D13*
X139220000Y-105950000D03*
X149380000Y-105950000D03*
D11*
X127790000Y-100870000D03*
D12*
X125250000Y-105950000D03*
D11*
X121440000Y-103410000D03*
D13*
X120170000Y-105950000D03*
X130330000Y-105950000D03*
D11*
X108740000Y-100870000D03*
D12*
X106200000Y-105950000D03*
D11*
X102390000Y-103410000D03*
D13*
X101120000Y-105950000D03*
X111280000Y-105950000D03*
D11*
X84927500Y-100870000D03*
D12*
X82387500Y-105950000D03*
D11*
X78577500Y-103410000D03*
D13*
X77307500Y-105950000D03*
X87467500Y-105950000D03*
D11*
X337340000Y-81820000D03*
D12*
X334800000Y-86900000D03*
D11*
X330990000Y-84360000D03*
D13*
X329720000Y-86900000D03*
X339880000Y-86900000D03*
D14*
X322893750Y-79915000D03*
X346706250Y-79915000D03*
D12*
X322893750Y-95155000D03*
X346706250Y-95155000D03*
D11*
X308765000Y-81820000D03*
D12*
X306225000Y-86900000D03*
D11*
X302415000Y-84360000D03*
D13*
X301145000Y-86900000D03*
X311305000Y-86900000D03*
D11*
X289715000Y-81820000D03*
D12*
X287175000Y-86900000D03*
D11*
X283365000Y-84360000D03*
D13*
X282095000Y-86900000D03*
X292255000Y-86900000D03*
D11*
X270665000Y-81820000D03*
D12*
X268125000Y-86900000D03*
D11*
X264315000Y-84360000D03*
D13*
X263045000Y-86900000D03*
X273205000Y-86900000D03*
D11*
X232565000Y-81820000D03*
D12*
X230025000Y-86900000D03*
D11*
X226215000Y-84360000D03*
D13*
X224945000Y-86900000D03*
X235105000Y-86900000D03*
D11*
X213515000Y-81820000D03*
D12*
X210975000Y-86900000D03*
D11*
X207165000Y-84360000D03*
D13*
X205895000Y-86900000D03*
X216055000Y-86900000D03*
D11*
X194465000Y-81820000D03*
D12*
X191925000Y-86900000D03*
D11*
X188115000Y-84360000D03*
D13*
X186845000Y-86900000D03*
X197005000Y-86900000D03*
D11*
X175415000Y-81820000D03*
D12*
X172875000Y-86900000D03*
D11*
X169065000Y-84360000D03*
D13*
X167795000Y-86900000D03*
X177955000Y-86900000D03*
D11*
X156365000Y-81820000D03*
D12*
X153825000Y-86900000D03*
D11*
X150015000Y-84360000D03*
D13*
X148745000Y-86900000D03*
X158905000Y-86900000D03*
D11*
X137315000Y-81820000D03*
D12*
X134775000Y-86900000D03*
D11*
X130965000Y-84360000D03*
D13*
X129695000Y-86900000D03*
X139855000Y-86900000D03*
D11*
X118265000Y-81820000D03*
D12*
X115725000Y-86900000D03*
D11*
X111915000Y-84360000D03*
D13*
X110645000Y-86900000D03*
X120805000Y-86900000D03*
D11*
X99215000Y-81820000D03*
D12*
X96675000Y-86900000D03*
D11*
X92865000Y-84360000D03*
D13*
X91595000Y-86900000D03*
X101755000Y-86900000D03*
D11*
X80165000Y-81820000D03*
D12*
X77625000Y-86900000D03*
D11*
X73815000Y-84360000D03*
D13*
X72545000Y-86900000D03*
X82705000Y-86900000D03*
M02*
