M48
; DRILL file {KiCad (5.1.9)-1} date 04/13/21 11:57:21
; FORMAT={-:-/ absolute / inch / decimal}
; #@! TF.CreationDate,2021-04-13T11:57:21+01:00
; #@! TF.GenerationSoftware,Kicad,Pcbnew,(5.1.9)-1
FMAT,2
INCH
T1C0.0157
T2C0.0315
T3C0.0402
T4C0.0579
T5C0.0689
T6C0.0866
T7C0.1200
T8C0.1570
%
G90
G05
T1
X8.6614Y-3.2283
X9.0354Y-3.2283
X9.311Y-3.2283
X10.3937Y-3.5827
X10.6102Y-3.9567
X11.2992Y-4.0945
X11.3583Y-3.937
X12.185Y-3.9567
X13.3661Y-4.7638
T2
X3.2244Y-6.0079
X3.3917Y-3.4409
X3.3917Y-3.7409
X3.5244Y-6.0079
X3.5792Y-6.2402
X3.5792Y-6.5402
X3.6683Y-4.1911
X3.6683Y-4.4911
X3.7667Y-4.1909
X3.7667Y-4.4909
X3.9542Y-4.8102
X3.9542Y-5.1102
X4.1417Y-3.4409
X4.1417Y-3.7409
X4.3292Y-5.6909
X4.3292Y-5.9909
X4.4882Y-6.2402
X4.4882Y-6.5402
X4.5167Y-4.1909
X4.5167Y-4.4909
X4.7042Y-4.9409
X4.7042Y-5.2409
X4.8917Y-3.4409
X4.8917Y-3.7409
X5.0792Y-5.6909
X5.0792Y-5.9909
X5.2667Y-4.1909
X5.2667Y-4.4909
X5.4528Y-6.2402
X5.4528Y-6.5402
X5.4542Y-4.9409
X5.4542Y-5.2409
X5.6417Y-3.4409
X5.6417Y-3.7409
X5.8292Y-5.6909
X5.8292Y-5.9909
X6.0167Y-4.1909
X6.0167Y-4.4909
X6.2042Y-4.9409
X6.2042Y-5.2409
X6.3917Y-3.4409
X6.3917Y-3.7409
X6.5792Y-5.6909
X6.5792Y-5.9909
X6.7667Y-4.1909
X6.7667Y-4.4909
X6.9542Y-4.9409
X6.9542Y-5.2409
X7.1417Y-3.4409
X7.1417Y-3.7409
X7.3292Y-5.6909
X7.3292Y-5.9909
X7.5167Y-4.1909
X7.5167Y-4.4909
X7.7042Y-4.9409
X7.7042Y-5.2409
X7.8917Y-3.4409
X7.8917Y-3.7409
X8.0792Y-5.6909
X8.0792Y-5.9909
X8.1693Y-6.2748
X8.1693Y-6.5748
X8.2667Y-4.1909
X8.2667Y-4.4909
X8.4542Y-4.9409
X8.4542Y-5.2409
X8.6417Y-3.4409
X8.6417Y-3.7409
X8.8292Y-5.6909
X8.8292Y-5.9909
X9.0167Y-4.1909
X9.0167Y-4.4909
X9.2042Y-4.9409
X9.2042Y-5.2409
X9.3917Y-3.4409
X9.3917Y-3.7409
X9.4882Y-3.4409
X9.4882Y-3.7409
X9.5792Y-5.6909
X9.5792Y-5.9909
X9.7667Y-4.1909
X9.7667Y-4.4909
X9.9542Y-4.9409
X9.9542Y-5.2409
X10.3292Y-5.6909
X10.3292Y-5.9909
X10.5167Y-4.1909
X10.5167Y-4.4909
X10.7042Y-4.9409
X10.7042Y-5.2409
X10.8661Y-3.2677
X10.8661Y-3.5677
X11.063Y-6.2402
X11.063Y-6.5402
X11.0792Y-5.6909
X11.0792Y-5.9909
X11.2667Y-4.1909
X11.2667Y-4.4909
X11.4542Y-4.9409
X11.4542Y-5.2409
X11.6417Y-3.2677
X11.6417Y-3.5677
X11.8292Y-5.6909
X11.8292Y-5.9909
X12.0167Y-4.1909
X12.0167Y-4.4909
X12.0167Y-6.2402
X12.0167Y-6.5402
X12.2042Y-4.9409
X12.2042Y-5.2409
X12.3028Y-4.9409
X12.3028Y-5.2409
X12.3917Y-3.2677
X12.3917Y-3.5677
X12.8346Y-4.1929
X12.8346Y-4.4929
X12.9331Y-4.1929
X12.9331Y-4.4929
X12.9331Y-6.2402
X12.9331Y-6.5402
X13.0512Y-6.2402
X13.0512Y-6.5402
X13.2283Y-5.5118
X13.2283Y-5.8118
X13.5039Y-3.2677
X13.5039Y-3.5677
T3
X10.2114Y-3.0752
X10.2114Y-3.7752
X10.2205Y-3.3252
X10.2205Y-3.4252
X10.2205Y-3.5252
X10.3114Y-3.0752
X10.3114Y-3.7752
X10.4114Y-3.0752
X10.4114Y-3.7752
X10.5114Y-3.0752
X10.5114Y-3.7752
X10.6114Y-3.0752
X10.6114Y-3.7752
X10.7114Y-3.0752
X10.7114Y-3.7752
X10.8114Y-3.0752
X10.8114Y-3.7752
X10.9114Y-3.0752
X10.9114Y-3.7752
X11.0114Y-3.0752
X11.0114Y-3.7752
X11.1114Y-3.0752
X11.1114Y-3.7752
X11.2114Y-3.0752
X11.2114Y-3.7752
X11.3114Y-3.0752
X11.3114Y-3.7752
X11.4114Y-3.0752
X11.4114Y-3.7752
X11.5114Y-3.0752
X11.5114Y-3.7752
X11.6114Y-3.0752
X11.6114Y-3.7752
X11.7114Y-3.0752
X11.7114Y-3.7752
X11.8114Y-3.0752
X11.8114Y-3.7752
X11.9114Y-3.0752
X11.9114Y-3.7752
X12.0114Y-3.0752
X12.0114Y-3.7752
X12.1114Y-3.0752
X12.1114Y-3.7752
T4
X2.9061Y-3.3213
X2.9999Y-5.5713
X2.9999Y-6.3213
X3.0936Y-4.0713
X3.1561Y-3.2213
X3.1874Y-4.8213
X3.2499Y-5.4713
X3.2499Y-6.2213
X3.3436Y-3.9713
X3.3736Y-5.5732
X3.4374Y-4.7213
X3.6236Y-5.4732
X3.6561Y-3.3213
X3.8436Y-5.5713
X3.9061Y-3.2213
X3.9374Y-6.3213
X4.0311Y-4.0713
X4.0936Y-5.4713
X4.1874Y-6.2213
X4.2186Y-4.8213
X4.2811Y-3.9713
X4.4061Y-3.3213
X4.4686Y-4.7213
X4.5936Y-5.5713
X4.6561Y-3.2213
X4.7811Y-4.0713
X4.8436Y-5.4713
X4.8749Y-6.3213
X4.9686Y-4.8213
X5.0311Y-3.9713
X5.1249Y-6.2213
X5.1561Y-3.3213
X5.2186Y-4.7213
X5.3436Y-5.5713
X5.4061Y-3.2213
X5.5311Y-4.0713
X5.5936Y-5.4713
X5.7186Y-4.8213
X5.7811Y-3.9713
X5.9061Y-3.3213
X5.9686Y-4.7213
X6.0936Y-5.5713
X6.1561Y-3.2213
X6.2811Y-4.0713
X6.3436Y-5.4713
X6.4686Y-4.8213
X6.5311Y-3.9713
X6.6561Y-3.3213
X6.7186Y-4.7213
X6.8436Y-5.5713
X6.9061Y-3.2213
X7.0311Y-4.0713
X7.0936Y-5.4713
X7.2186Y-4.8213
X7.2811Y-3.9713
X7.4061Y-3.3213
X7.4686Y-4.7213
X7.5936Y-5.5713
X7.6561Y-3.2213
X7.6874Y-6.3213
X7.7811Y-4.0713
X7.8436Y-5.4713
X7.9374Y-6.2213
X7.9686Y-4.8213
X8.0311Y-3.9713
X8.1561Y-3.3213
X8.2186Y-4.7213
X8.3436Y-5.5713
X8.4061Y-3.2213
X8.5311Y-4.0713
X8.5936Y-5.4713
X8.7186Y-4.8213
X8.7811Y-3.9713
X8.9061Y-3.3213
X8.9686Y-4.7213
X9.0936Y-5.5713
X9.1561Y-3.2213
X9.2811Y-4.0713
X9.3436Y-5.4713
X9.4686Y-4.8213
X9.5311Y-3.9713
X9.6561Y-3.3213
X9.7186Y-4.7213
X9.8436Y-5.5713
X9.9061Y-3.2213
X10.0311Y-4.0713
X10.0936Y-5.4713
X10.2186Y-4.8213
X10.2811Y-3.9713
X10.4061Y-3.3213
X10.4686Y-4.7213
X10.4999Y-6.3213
X10.5936Y-5.5713
X10.6561Y-3.2213
X10.7499Y-6.2213
X10.7811Y-4.0713
X10.8436Y-5.4713
X10.9686Y-4.8213
X11.0311Y-3.9713
X11.1561Y-3.3213
X11.2186Y-4.7213
X11.3436Y-5.5713
X11.4061Y-3.2213
X11.4374Y-6.3213
X11.5311Y-4.0713
X11.5936Y-5.4713
X11.6874Y-6.2213
X11.7186Y-4.8213
X11.7811Y-3.9713
X11.9061Y-3.3213
X11.9686Y-4.7213
X12.1561Y-3.2213
X12.2811Y-4.0713
X12.3749Y-6.3213
X12.4686Y-4.8213
X12.5311Y-3.9713
X12.6249Y-6.2213
X12.7186Y-4.7213
X12.7499Y-5.5713
X12.9366Y-4.8213
X12.9999Y-5.4713
X13.0311Y-3.3213
X13.1866Y-4.7213
X13.2181Y-4.0713
X13.2811Y-3.2213
X13.3124Y-6.3213
X13.4681Y-3.9713
X13.5624Y-4.3972
X13.5624Y-6.2213
X13.6624Y-4.6472
T5
X2.8561Y-3.4213
X2.9499Y-5.6713
X2.9499Y-6.4213
X3.0436Y-4.1713
X3.1374Y-4.9213
X3.2561Y-3.4213
X3.3236Y-5.6732
X3.3499Y-5.6713
X3.3499Y-6.4213
X3.4436Y-4.1713
X3.5374Y-4.9213
X3.6061Y-3.4213
X3.7236Y-5.6732
X3.7936Y-5.6713
X3.8874Y-6.4213
X3.9811Y-4.1713
X4.0061Y-3.4213
X4.1686Y-4.9213
X4.1936Y-5.6713
X4.2874Y-6.4213
X4.3561Y-3.4213
X4.3811Y-4.1713
X4.5436Y-5.6713
X4.5686Y-4.9213
X4.7311Y-4.1713
X4.7561Y-3.4213
X4.8249Y-6.4213
X4.9186Y-4.9213
X4.9436Y-5.6713
X5.1061Y-3.4213
X5.1311Y-4.1713
X5.2249Y-6.4213
X5.2936Y-5.6713
X5.3186Y-4.9213
X5.4811Y-4.1713
X5.5061Y-3.4213
X5.6686Y-4.9213
X5.6936Y-5.6713
X5.8561Y-3.4213
X5.8811Y-4.1713
X6.0436Y-5.6713
X6.0686Y-4.9213
X6.2311Y-4.1713
X6.2561Y-3.4213
X6.4186Y-4.9213
X6.4436Y-5.6713
X6.6061Y-3.4213
X6.6311Y-4.1713
X6.7936Y-5.6713
X6.8186Y-4.9213
X6.9811Y-4.1713
X7.0061Y-3.4213
X7.1686Y-4.9213
X7.1936Y-5.6713
X7.3561Y-3.4213
X7.3811Y-4.1713
X7.5436Y-5.6713
X7.5686Y-4.9213
X7.6374Y-6.4213
X7.7311Y-4.1713
X7.7561Y-3.4213
X7.9186Y-4.9213
X7.9436Y-5.6713
X8.0374Y-6.4213
X8.1061Y-3.4213
X8.1311Y-4.1713
X8.2936Y-5.6713
X8.3186Y-4.9213
X8.4811Y-4.1713
X8.5061Y-3.4213
X8.6686Y-4.9213
X8.6936Y-5.6713
X8.8561Y-3.4213
X8.8811Y-4.1713
X9.0436Y-5.6713
X9.0686Y-4.9213
X9.2311Y-4.1713
X9.2561Y-3.4213
X9.4186Y-4.9213
X9.4436Y-5.6713
X9.6061Y-3.4213
X9.6311Y-4.1713
X9.7936Y-5.6713
X9.8186Y-4.9213
X9.9811Y-4.1713
X10.0061Y-3.4213
X10.1686Y-4.9213
X10.1936Y-5.6713
X10.3561Y-3.4213
X10.3811Y-4.1713
X10.4499Y-6.4213
X10.5436Y-5.6713
X10.5686Y-4.9213
X10.7311Y-4.1713
X10.7561Y-3.4213
X10.8499Y-6.4213
X10.9186Y-4.9213
X10.9436Y-5.6713
X11.1061Y-3.4213
X11.1311Y-4.1713
X11.2936Y-5.6713
X11.3186Y-4.9213
X11.3874Y-6.4213
X11.4811Y-4.1713
X11.5061Y-3.4213
X11.6686Y-4.9213
X11.6936Y-5.6713
X11.7874Y-6.4213
X11.8561Y-3.4213
X11.8811Y-4.1713
X12.0686Y-4.9213
X12.2311Y-4.1713
X12.2561Y-3.4213
X12.3249Y-6.4213
X12.4186Y-4.9213
X12.6311Y-4.1713
X12.6999Y-5.6713
X12.7249Y-6.4213
X12.8186Y-4.9213
X12.8866Y-4.9213
X12.9811Y-3.4213
X13.0999Y-5.6713
X13.1681Y-4.1713
X13.2624Y-6.4213
X13.2866Y-4.9213
X13.3811Y-3.4213
X13.4624Y-4.3472
X13.4624Y-4.7472
X13.5681Y-4.1713
X13.6624Y-6.4213
T6
X2.7953Y-3.0315
X2.7953Y-6.7323
X8.3071Y-3.9173
X8.3071Y-6.7323
X13.8189Y-3.0315
X13.8189Y-6.7323
T7
X3.0549Y-5.9482
X3.9924Y-5.9482
X5.8689Y-6.1463
X9.8059Y-6.1463
X12.4311Y-5.3963
X12.6179Y-4.6463
X12.7124Y-3.1463
X13.3686Y-5.3963
X13.5554Y-4.6463
X13.6499Y-3.1463
X13.7374Y-4.0772
X13.7374Y-5.0172
T8
X3.0549Y-5.3482
X3.0561Y-3.4213
X3.1499Y-5.6713
X3.1499Y-6.4213
X3.2436Y-4.1713
X3.3374Y-4.9213
X3.5236Y-5.6732
X3.8061Y-3.4213
X3.9924Y-5.3482
X3.9936Y-5.6713
X4.0874Y-6.4213
X4.1811Y-4.1713
X4.3686Y-4.9213
X4.5561Y-3.4213
X4.7436Y-5.6713
X4.9311Y-4.1713
X5.0249Y-6.4213
X5.1186Y-4.9213
X5.3061Y-3.4213
X5.4936Y-5.6713
X5.6811Y-4.1713
X5.8686Y-4.9213
X5.8689Y-6.7463
X6.0561Y-3.4213
X6.2436Y-5.6713
X6.4311Y-4.1713
X6.6186Y-4.9213
X6.8061Y-3.4213
X6.9936Y-5.6713
X7.1811Y-4.1713
X7.3686Y-4.9213
X7.5561Y-3.4213
X7.7436Y-5.6713
X7.8374Y-6.4213
X7.9311Y-4.1713
X8.1186Y-4.9213
X8.3061Y-3.4213
X8.4936Y-5.6713
X8.6811Y-4.1713
X8.8686Y-4.9213
X9.0561Y-3.4213
X9.2436Y-5.6713
X9.4311Y-4.1713
X9.6186Y-4.9213
X9.8059Y-6.7463
X9.8061Y-3.4213
X9.9936Y-5.6713
X10.1811Y-4.1713
X10.3686Y-4.9213
X10.5561Y-3.4213
X10.6499Y-6.4213
X10.7436Y-5.6713
X10.9311Y-4.1713
X11.1186Y-4.9213
X11.3061Y-3.4213
X11.4936Y-5.6713
X11.5874Y-6.4213
X11.6811Y-4.1713
X11.8686Y-4.9213
X12.0561Y-3.4213
X12.4311Y-4.1713
X12.4311Y-5.9963
X12.5249Y-6.4213
X12.6179Y-5.2463
X12.6186Y-4.9213
X12.7124Y-3.7463
X12.8999Y-5.6713
X13.0866Y-4.9213
X13.1374Y-4.0772
X13.1374Y-5.0172
X13.1811Y-3.4213
X13.3681Y-4.1713
X13.3686Y-5.9963
X13.4624Y-4.5472
X13.4624Y-6.4213
X13.5554Y-5.2463
X13.6499Y-3.7463
T0
M30
